<svg xmlns="http://www.w3.org/2000/svg" viewBox="0 0 80 78"><defs><style>.cls-1{fill:#f9690e}</style></defs><path class="cls-1" d="M20 77.8a.9.9 0 0 1-.5-.1h-.2a1.49 1.49 0 0 1-.6.1H1.6A1.58 1.58 0 0 1 0 76.2V1.5A1.71 1.71 0 0 1 1.6 0h17a1.58 1.58 0 0 1 1.6 1.6v20.6l.7.1L29.1 3a1.5 1.5 0 0 1 1.4-1 1.27 1.27 0 0 1 .6.1l15 6.3a1.42 1.42 0 0 1 .8.9 1.28 1.28 0 0 1 0 1.2l-8.3 19.6.6.4 14.7-14.7a1.46 1.46 0 0 1 2.2 0l11.5 11.5a1.46 1.46 0 0 1 0 2.2l-15 15 .4.6 18.6-6.8a1.09 1.09 0 0 1 .5-.1 1.64 1.64 0 0 1 1.5 1l5.6 15.3a1.67 1.67 0 0 1-.1 1.2 1.42 1.42 0 0 1-.9.8L20.6 77.8zM3.2 74.7h13.9V3.1H3.2zm43.3-23.8l-21.1 21 .4.6 50.1-18.4-4.5-12.4zM34.9 39.4l-8 18.8L22 69.9l.6.4 41.9-41.9-9.3-9.3zM20.3 32v32.1l.7.1 22.6-53.5-12.2-5.1z"/><path class="cls-1" d="M10.2 71.5a2.61 2.61 0 0 1-2-1 2.39 2.39 0 0 1-.5-1.4 1.27 1.27 0 0 1 .1-.6 2.38 2.38 0 0 1 .6-1.1 2.47 2.47 0 0 1 1.6-.8h.2a2.87 2.87 0 0 1 1.8.7 2.34 2.34 0 0 1 .7 1.7v.1a2.14 2.14 0 0 1-.4 1.2 2.18 2.18 0 0 1-.4.5 3.1 3.1 0 0 1-1.3.6.76.76 0 0 1-.4.1z"/></svg>