<svg version="1.1" id="Layer_1" xmlns="http://www.w3.org/2000/svg" x="0" y="0" viewBox="0 0 512 512" xml:space="preserve"><style>.st0{fill:#333}</style><path class="st0" d="M469.3 175.5h-52.1V102c0-23.6-19.2-42.7-42.7-42.7H42.7C19.2 59.2 0 78.4 0 102v191.8c0 23.6 19.2 42.7 42.7 42.7h52.1V410c0 23.6 19.2 42.7 42.7 42.7h331.7c23.6 0 42.7-19.2 42.7-42.7V218.2c.1-23.5-19.1-42.7-42.6-42.7zM24.4 102c0-10.1 8.2-18.3 18.3-18.3h331.7c10.1 0 18.3 8.2 18.3 18.3v17H24.4v-17zm70.4 116.2V312H42.7c-10.1 0-18.3-8.2-18.3-18.3V200h74.5c-2.6 5.5-4.1 11.7-4.1 18.2zm-70.4-42.6v-32.1h368.3v32.1H137.6c-.8 0-1.6 0-2.5.1H24.4zm444.9 252.8H137.6c-10.1 0-18.3-8.2-18.3-18.3V218.2c0-9.6 7.4-17.5 16.8-18.2h268.8c.5 0 .9 0 1.3-.1h63c10.1 0 18.3 8.2 18.3 18.3V410c.1 10.1-8.1 18.4-18.2 18.4z"/><path class="st0" d="M340.2 255.3c-13.9 0-26.7 4.8-36.7 12.9-10.3-8.3-23.2-12.9-36.8-12.9-32.5 0-58.9 26.4-58.9 58.9s26.4 58.9 58.9 58.9c13.6 0 26.5-4.6 36.8-12.9 10.1 8.1 22.9 12.9 36.7 12.9 32.5 0 58.9-26.4 58.9-58.9s-26.4-58.9-58.9-58.9zM288 341.2c-6 4.8-13.5 7.4-21.3 7.4-19 0-34.5-15.5-34.5-34.5s15.5-34.5 34.5-34.5c7.9 0 15.3 2.6 21.3 7.4-4.2 8.1-6.6 17.3-6.6 27.1-.1 9.8 2.3 19 6.6 27.1zm52.2 7.4c-19 0-34.4-15.5-34.4-34.4 0-19 15.5-34.4 34.4-34.4 19 0 34.4 15.5 34.4 34.4.1 18.9-15.4 34.4-34.4 34.4z"/></svg>