<svg version="1.1" id="Layer_1" xmlns="http://www.w3.org/2000/svg" x="0" y="0" viewBox="0 0 512 512" xml:space="preserve"><style>.st0{fill:#333}</style><path class="st0" d="M444.9 109.8L338.2 3.1c-2-2-4.7-3.1-7.5-3.1h-224C83.1 0 64 19.1 64 42.7v426.7c0 23.5 19.1 42.7 42.7 42.7h298.7c23.5 0 42.7-19.1 42.7-42.7v-352c-.1-2.9-1.2-5.6-3.2-7.6zM341.3 36.4l70.2 70.2h-48.9c-11.8 0-21.3-9.6-21.3-21.3V36.4zm85.4 432.9c0 11.8-9.6 21.3-21.3 21.3H106.7c-11.8 0-21.3-9.6-21.3-21.3V42.7c0-11.8 9.6-21.3 21.3-21.3H320v64c0 23.5 19.1 42.7 42.7 42.7h64v341.2z"/><path class="st0" d="M373.3 298.7H138.7c-5.9 0-10.7 4.8-10.7 10.7s4.8 10.7 10.7 10.7h234.7c5.9 0 10.7-4.8 10.7-10.7-.1-6-4.9-10.7-10.8-10.7zm0-64H138.7c-5.9 0-10.7 4.8-10.7 10.7 0 5.9 4.8 10.7 10.7 10.7h234.7c5.9 0 10.7-4.8 10.7-10.7-.1-6-4.9-10.7-10.8-10.7zm0 128H138.7c-5.9 0-10.7 4.8-10.7 10.7s4.8 10.7 10.7 10.7h234.7c5.9 0 10.7-4.8 10.7-10.7-.1-6-4.9-10.7-10.8-10.7zm-106.6 64h-128c-5.9 0-10.7 4.8-10.7 10.7s4.8 10.7 10.7 10.7h128c5.9 0 10.7-4.8 10.7-10.7-.1-6-4.8-10.7-10.7-10.7zm-32-245.4c0 5.9 4.8 10.7 10.7 10.7h128c5.9 0 10.7-4.8 10.7-10.7s-4.8-10.7-10.7-10.7h-128c-6 .1-10.7 4.8-10.7 10.7zM160 170.7h-21.3c-5.9 0-10.7 4.8-10.7 10.7 0 5.9 4.8 10.7 10.7 10.7h10.7c0 5.9 4.8 10.7 10.7 10.7s10.7-4.8 10.7-10.7v-2c12.4-4.4 21.3-16.1 21.3-30 0-17.6-14.4-32-32-32-5.9 0-10.7-4.8-10.7-10.7 0-5.9 4.8-10.7 10.7-10.7h21.3c5.9 0 10.7-4.8 10.7-10.7s-4.8-10.7-10.7-10.7h-10.7c0-5.9-4.8-10.7-10.7-10.7s-10.7 4.8-10.7 10.7v2c-12.4 4.4-21.3 16.1-21.3 30 0 17.6 14.4 32 32 32 5.9 0 10.7 4.8 10.7 10.7s-4.8 10.7-10.7 10.7z"/></svg>