<svg version="1.1" id="Capa_1" xmlns="http://www.w3.org/2000/svg" x="0" y="0" viewBox="0 0 48.4 48.4" xml:space="preserve"><style>.st0{fill:#999}</style><path class="st0" d="M33.9 9.7c-3.7 0-7.2 1.4-9.7 3.7-2.6-2.3-6-3.7-9.7-3.7h-.1C6.4 9.8 0 16.2 0 24.2s6.5 14.5 14.5 14.5c3.7 0 7.1-1.4 9.7-3.7-.5-.5-1-1-1.5-1.6h3c-.5.6-.9 1.1-1.5 1.6 2.6 2.3 6 3.8 9.7 3.7 8 0 14.5-6.5 14.5-14.5S41.9 9.7 33.9 9.7zm-11 5.3h2.8c.4.5.8 1 1.1 1.6h-4.9c.3-.6.6-1.1 1-1.6zM21 18h6.6c.2.5.4 1 .6 1.6h-8L21 18zM5.9 27.9l.9-5.5-2 5.5h-1l-.1-5.5-.9 5.5H1.2l1.2-7.4h2.3l.1 4.5 1.5-4.5h2.4l-1.2 7.4H5.9zm5.3 0l.1-.6s-.5.7-1.6.7c-.6 0-1.5-.3-1.5-1.7 0-1.7 1.4-2.3 2.7-2.3h.7s.1-.1.1-.4c0-.5-.4-.5-1-.5-1 0-1.7.3-1.7.3l.2-1.3s.8-.3 1.9-.3c.5 0 2.1.1 2.1 1.9l-.6 4.2h-1.4zm5.7-1.9c0 2.1-2 2-2.3 2-1.3 0-1.7-.2-1.7-.2l.2-1.4s.6.2 1.4.2c.4 0 1 0 1-.5 0-.7-1.9-.6-1.9-2.3 0-1.6 1.2-2 2.3-2 .9 0 1.4.1 1.4.1l-.3 1.4s-.8-.1-1.1-.1c-.5 0-.8.1-.8.5 0 .8 1.8.4 1.8 2.3zm2.4.6h.4l-.2 1.3c-.2 0-.6.2-1.2.2-.7 0-1.2-.4-1.2-1.3 0-.6.9-5.7.9-5.7h1.5l-.2.9h.8l-.1 1.4h-.8l-.4 2.7c-.1.2 0 .5.5.5zm3.4-4.8c1.7 0 2.2 1.2 2.2 2.3 0 .4-.2 1.4-.2 1.4h-3.1s-.3 1.2 1.4 1.2c.8 0 1.6-.4 1.6-.4l-.3 1.5s-.5.3-1.6.3c-1.2 0-2.7-.5-2.7-2.7 0-2 1.2-3.6 2.7-3.6zm4.1 10.1h-5.1c-.3-.5-.6-1-.9-1.6h6.8c-.2.6-.5 1.1-.8 1.6zm-.4-4h-1.6l1-6h1.4l-.1.9s.5-.9 1.2-.9h.3c-.2.4-.4.8-.6 1.8-1-.4-1.1 1.7-1.6 4.2zm6.1-.1s-.8.2-1.4.2c-1.8 0-2.8-1.3-2.8-3.2 0-2.9 1.7-4.4 3.5-4.4.8 0 1.7.4 1.7.4l-.3 1.6s-.6-.4-1.4-.4c-1 0-2 1-2 2.8 0 .9.4 1.7 1.5 1.7.5 0 1.3-.4 1.3-.4l-.1 1.7zm3.7.1l.1-.6s-.5.7-1.6.7c-.6 0-1.5-.3-1.5-1.7 0-1.7 1.4-2.3 2.7-2.3h.7s.1-.1.1-.4c0-.5-.4-.5-1-.5-1 0-1.7.3-1.7.3l.2-1.3s.8-.3 1.9-.3c.5 0 2.1.1 2.1 1.9l-.6 4.2h-1.4zm3.2 0h-1.6l1-6h1.4l-.1.9s.5-.9 1.2-.9h.3c-.2.4-.4.8-.6 1.8-1.1-.4-1.1 1.7-1.6 4.2zm4.7 0l.1-.6s-.5.6-1.4.6c-1.3 0-1.9-1.2-1.9-2.5 0-2 1.2-3.7 2.6-3.7.9 0 1.5.8 1.5.8l.3-2.1h1.5l-1.2 7.3h-1.5zm3.1-.2c0 .1-.1.1-.2.2-.1 0-.2.1-.2.1-.1 0-.2 0-.2-.1-.1 0-.1-.1-.2-.2 0-.1-.1-.2-.1-.2 0-.1 0-.2.1-.2s.1-.1.2-.2c.1 0 .2-.1.2-.1.1 0 .2 0 .2.1.1 0 .1.1.2.2 0 .1.1.2.1.2s-.1.1-.1.2zm-.1 4.4s-.1 0 0 0h-.2v.2h.1c0-.1 0-.1.1-.2 0 .1 0 .1 0 0z"/><path class="st0" d="M47.4 32c0-.1-.1-.1-.2-.2-.1 0-.2-.1-.2-.1-.1 0-.2 0-.2.1s-.2.2-.2.2c0 .1-.1.2-.1.2s0 .2.1.2c0 .1.1.1.2.2.1 0 .2.1.2.1.1 0 .2 0 .2-.1.1 0 .1-.1.2-.2 0-.1.1-.2.1-.2s-.1-.1-.1-.2zm-.3.5c-.1-.1-.1-.2-.1-.2h-.1v.2h-.1V32h.4v.2h-.1v.3h.1-.1zM11 25.2c-1.1 0-1.4.5-1.4.9 0 .2.1.6.6.6.9 0 1.1-1.2 1.1-1.5H11zm11.7-2.1c-.8 0-1 1-1 1.1h1.7c0-.1.2-1.1-.7-1.1zm21 .2c-.7 0-1.2.8-1.2 2 0 .7.3 1.2.8 1.2.8 0 1.2-1.1 1.2-1.9 0-.9-.2-1.3-.8-1.3zm3.4 4c0-.1-.1-.1-.1-.1s-.1-.1-.2-.1-.1 0-.2.1c-.1 0-.1.1-.1.1s-.1.1-.1.2 0 .1.1.2c0 .1.1.1.1.1.1 0 .1.1.2.1s.1 0 .2-.1c.1 0 .1-.1.1-.1 0-.1.1-.1.1-.2s0-.2-.1-.2zm-.2.4c-.1-.1-.1-.2-.1-.2h-.1v.2h-.1v-.5h.4v.2h-.1v.3c.1 0 0 0 0 0zM36 25.2c-1.1 0-1.4.5-1.4.9 0 .2.1.6.6.6.9 0 1.1-1.2 1.1-1.5H36z"/><path class="st0" d="M46.9 27.3s-.1 0 0 0h-.2v.2h.1c0-.1 0-.1.1-.2 0 .1 0 .1 0 0z"/></svg>