<svg xmlns="http://www.w3.org/2000/svg" viewBox="0 0 80 79"><defs><style>.cls-1{fill:#f9690e}</style></defs><path class="cls-1" d="M28.2 79.3c-9.9 0-19.8-2.8-19.8-8.1v-5.1l-.2-.1C2.9 64.7 0 62.3 0 59.5v-6.7c0-1.3.6-3.1 3.6-4.8l.2-.1-.1-.2a4.15 4.15 0 0 1-.3-1.6v-6.7c0-2.5 2.3-4.7 6.5-6.1l.2-.1v-14a1.37 1.37 0 0 1 1.4-1.4h5.3v-3.7a1.37 1.37 0 0 1 1.4-1.4h60.4a1.37 1.37 0 0 1 1.4 1.4v33.6a1.37 1.37 0 0 1-1.4 1.4h-5.3v5.3a1.37 1.37 0 0 1-1.4 1.4H39.7v2l.2.1c5.3 1.5 8.2 3.8 8.2 6.6v6.7c0 5.4-10 8.1-19.9 8.1zm-17.1-8.1c0 2.2 6.7 5.3 17.1 5.3s17.1-3.2 17.1-5.3v-2.4l-.5.3c-3.6 2.2-9.8 3.5-16.6 3.5s-13.1-1.3-16.6-3.5l-.5-.3zm4.6-3.2a37.49 37.49 0 0 0 11.9 1.9h.7c10.4 0 17.1-3.2 17.1-5.3 0-1-1.7-2.6-5.6-3.8l-.3-.1-.1.3c-1.7 4.6-11.3 6.7-19.6 6.7-1.3 0-2.7-.1-3.9-.2h-.1zM2.8 59.5c0 2.2 6.7 5.3 17.1 5.3S37 61.6 37 59.5v-2.4l-.5.3c-3.6 2.2-9.8 3.5-16.6 3.5S6.8 59.6 3.2 57.4l-.5-.3v2.4zm2.7-9.4c-1.7.9-2.7 1.9-2.7 2.7 0 2.2 6.7 5.3 17.1 5.3S37 54.9 37 52.8v-.3l-.1-.4-.3.1a42.14 42.14 0 0 1-12.7 2h-.7c-7.4 0-14.1-1.5-17.4-4l-.2-.1zm36.1-.9a8.34 8.34 0 0 1-2.1 1.6l-.2.1.1.3a4.15 4.15 0 0 1 .3 1.6v.3h30.8v-4l-28.9.1zM6.1 46.1c0 2.2 6.7 5.3 17.1 5.3s17.1-3.2 17.1-5.3v-2.4l-.5.3c-3.6 2.2-9.8 3.5-16.6 3.5S10.1 46.2 6.6 44l-.5-.3zm36.9.3h34.2V15.5H19.5v15.9h.3c1.1-.1 2.2-.1 3.3-.1h.4a44.06 44.06 0 0 1 11.4 1.5l.4.1-.1-.4a7.57 7.57 0 0 1-.1-1.5 12.41 12.41 0 0 1 1-5 13 13 0 0 1 12.2-8.2 11.94 11.94 0 0 1 4.9 1 13 13 0 0 1 7.2 7 12.85 12.85 0 0 1 .1 10A13 13 0 0 1 48.3 44a11.94 11.94 0 0 1-4.9-1l-.4-.1zM23.2 34c-10.4 0-17.1 3.2-17.1 5.3s6.7 5.3 17.1 5.3 17.1-3.2 17.1-5.3S33.6 34 23.2 34zm25.2-13.4a10.32 10.32 0 0 0-3 .4 10.64 10.64 0 0 0-6.2 5 10.31 10.31 0 0 0-.8 7.9l.1.1c3 1.4 4.5 3.3 4.5 5.3v.5l.2.1a10.67 10.67 0 0 0 5.2 1.4 10.32 10.32 0 0 0 3-.4 10.64 10.64 0 0 0 6.2-5 10.31 10.31 0 0 0 .8-7.9 10.6 10.6 0 0 0-10-7.4zM12.8 32.4l.4-.1 3.3-.6h.3V20.6h-4zm44.7 39.8a1.39 1.39 0 0 1 0-1.9l6.5-6.5 1.9 1.9-4.1 4.1h10.1a5.34 5.34 0 0 0 5.3-5.3v-4.7H80v4.7a8.07 8.07 0 0 1-8.1 8.1H61.8l4.1 4.2-1.9 1.9zM0 23.9v-9.8A8.07 8.07 0 0 1 8.1 6h5.1L9 1.9 11 0l6.5 6.5a1.39 1.39 0 0 1 0 1.9L11 14.9l-2-2 4.2-4.1H8.1a5.34 5.34 0 0 0-5.3 5.3v9.8zm0 4h2.8v2.8H0zm77.2 25.2H80v2.8h-2.8z"/><path class="cls-1" d="M21.8 23.9v-4.7a1.37 1.37 0 0 1 1.4-1.4h4.7v2.8h-3.4V24h-2.7zm50.4 0v-3.4h-3.4v-2.7h4.7a1.37 1.37 0 0 1 1.4 1.4v4.7zm-3.4 20.2v-2.8h3.4v-3.4H75v4.7a1.37 1.37 0 0 1-1.4 1.4h-4.8z"/></svg>