<svg xmlns="http://www.w3.org/2000/svg" viewBox="0 0 42.1 42.1"><path d="M38.3 29.4L36.9 28c4.3-4.3 4.3-11.4 0-15.7l1.3-1.3c5.1 5 5.1 13.3.1 18.4zM36 13.3l-1.3 1.3c3.1 3.1 3.1 8.1 0 11.1L36 27c3.8-3.7 3.8-9.9 0-13.7zm-2.4 2.3L32.3 17c1.8 1.8 1.8 4.6 0 6.4l1.3 1.3c2.5-2.5 2.5-6.6 0-9.1zM3.8 29.4L5.1 28C.8 23.7.8 16.6 5.1 12.3L3.8 11c-5.1 5-5.1 13.3 0 18.4zm2.3-2.3l1.3-1.3c-3.1-3.1-3.1-8.1 0-11.1l-1.3-1.3c-3.8 3.7-3.8 9.9 0 13.7zm2.4-2.4l1.3-1.3C8 21.6 8 18.7 9.8 17l-1.3-1.3c-2.5 2.4-2.5 6.5 0 9zM29.7 8.1V34c0 1.1-.9 2-2 2H14.3c-1.1 0-2-.9-2-2V8.1c0-1.1.9-2 2-2h13.4c1.1-.1 2 .8 2 2zm-11.1-.4c0 .1.1.2.2.2h4.3c.1 0 .2-.1.2-.2s-.1-.2-.2-.2h-4.3s-.2.1-.2.2zM22 34c0-.6-.5-1-1-1s-1 .5-1 1c0 .6.5 1 1 1 .6 0 1-.4 1-1zm6.3-24.8H13.7v23h14.6v-23z" fill="#999"/></svg>