<svg xmlns="http://www.w3.org/2000/svg" viewBox="0 0 31.06 31.06"><defs><style>.cls-1{fill:#fff}</style></defs><g id="plus" data-name="plus"><path class="cls-1" d="M15.53 31.06a15.53 15.53 0 1 1 15.53-15.53 15.55 15.55 0 0 1-15.53 15.53zm0-29.29a13.76 13.76 0 1 0 13.75 13.76A13.78 13.78 0 0 0 15.53 1.77z"/><path class="cls-1" d="M21.65 16.42H9.41a.89.89 0 0 1 0-1.78h12.24a.89.89 0 1 1 0 1.78z"/><path class="cls-1" d="M15.53 22.54a.89.89 0 0 1-.89-.89V9.41a.89.89 0 1 1 1.78 0v12.24a.89.89 0 0 1-.89.89z"/></g></svg>