<svg version="1.1" id="Layer_1" xmlns="http://www.w3.org/2000/svg" x="0" y="0" viewBox="0 0 512 512" xml:space="preserve"><style>.st0{fill:#fff}</style><path class="st0" d="M341.3 320V170.7h-160V21.3H0v469.3h512V320H341.3zM21.3 42.7H160v128H21.3v-128zm0 149.3H160v128H21.3V192zm0 277.3v-128H160v128H21.3zm298.7 0H181.3v-128H320v128zm0-149.3H181.3V192H320v128zm170.7 149.3H341.3v-128h149.3v128z"/><path class="st0" d="M138.7 53.3h-96C36.8 53.3 32 58.1 32 64v85.3c0 5.9 4.8 10.7 10.7 10.7s10.7-4.8 10.7-10.7V74.7h85.3c5.9 0 10.7-4.8 10.7-10.7s-4.8-10.7-10.7-10.7zm0 149.4h-96c-5.9 0-10.7 4.8-10.7 10.7v85.3c0 5.9 4.8 10.7 10.7 10.7s10.7-4.8 10.7-10.7V224h85.3c5.9 0 10.7-4.8 10.7-10.7-.1-5.9-4.8-10.6-10.7-10.6zm0 149.3h-96c-5.9 0-10.7 4.8-10.7 10.7V448c0 5.9 4.8 10.7 10.7 10.7s10.7-4.8 10.7-10.7v-74.7h85.3c5.9 0 10.7-4.8 10.7-10.7-.1-5.8-4.8-10.6-10.7-10.6zm64-42.7c5.9 0 10.7-4.8 10.7-10.7V224h85.3c5.9 0 10.7-4.8 10.7-10.7s-4.8-10.7-10.7-10.7h-96c-5.9 0-10.7 4.8-10.7 10.7v85.3c0 6 4.8 10.7 10.7 10.7zm0 149.4c5.9 0 10.7-4.8 10.7-10.7v-74.7h85.3c5.9 0 10.7-4.8 10.7-10.7 0-5.9-4.8-10.7-10.7-10.7h-96c-5.9 0-10.7 4.8-10.7 10.7V448c0 5.9 4.8 10.7 10.7 10.7zm160 0c5.9 0 10.7-4.8 10.7-10.7v-74.7h96c5.9 0 10.7-4.8 10.7-10.7 0-5.9-4.8-10.7-10.7-10.7H362.7c-5.9 0-10.7 4.8-10.7 10.7V448c0 5.9 4.8 10.7 10.7 10.7z"/></svg>