<svg version="1.1" id="Capa_1" xmlns="http://www.w3.org/2000/svg" x="0" y="0" viewBox="0 0 512 512" xml:space="preserve"><style>.st0{fill:#fff}</style><path class="st0" d="M473.1 181.5h-18.2L373.3 27.7c-3.9-7.3-13-10.1-20.3-6.2s-10.1 13-6.2 20.3l74.1 139.8H93.2l74.1-139.8c3.9-7.3 1.1-16.4-6.2-20.3s-16.4-1.1-20.3 6.2L59.3 181.5H38.9C17.4 181.5 0 199 0 220.4s17.4 38.9 38.9 38.9H40c0 .2.1.4.1.6l31.3 175.4c5.9 33 34.5 56.9 68 56.9h235.5c33.5 0 62.1-23.9 68-56.9l31.3-175.4c0-.2.1-.4.1-.7 20.9-.6 37.8-17.8 37.8-38.9-.1-21.3-17.5-38.8-39-38.8zm-59.8 248.6c-3.3 18.7-19.5 32.2-38.4 32.2H139.3c-18.9 0-35.1-13.5-38.4-32.2L70.4 259.3h373.3l-30.4 170.8zm59.8-200.8H38.9c-4.9 0-8.9-4-8.9-8.9s4-8.9 8.9-8.9h434.2c4.9 0 8.9 4 8.9 8.9s-4 8.9-8.9 8.9z"/><path class="st0" d="M255.4 280.1c-8.3 0-15 6.7-15 15v131.4c0 8.3 6.7 15 15 15s15-6.7 15-15V295.1c0-8.3-6.8-15-15-15zM204.2 424L182 292.6c-1.4-8.2-9.1-13.7-17.3-12.3-8.2 1.4-13.7 9.1-12.3 17.3L174.6 429c1.2 7.3 7.6 12.5 14.8 12.5.8 0 1.7-.1 2.5-.2 8.1-1.4 13.6-9.2 12.3-17.3zm140.7-143.7c-8.2-1.4-15.9 4.1-17.3 12.3L305.5 424c-1.4 8.2 4.1 15.9 12.3 17.3.8.1 1.7.2 2.5.2 7.2 0 13.5-5.2 14.8-12.5l22.1-131.4c1.4-8.2-4.1-15.9-12.3-17.3z"/></svg>