<svg xmlns="http://www.w3.org/2000/svg" viewBox="0 0 512 495"><defs><style>.cls-1{fill:#f9690e}</style></defs><path class="cls-1" d="M477.86 0H34.14A34.18 34.18 0 0 0 0 34.14v281.59a8.54 8.54 0 0 0 8.53 8.54h494.94a8.54 8.54 0 0 0 8.53-8.54V34.14A34.18 34.18 0 0 0 477.86 0zm17.07 307.2H17.07V34.14a17.09 17.09 0 0 1 17.07-17.07h443.72a17.09 17.09 0 0 1 17.07 17.07z"/><path class="cls-1" d="M503.47 307.2H8.53A8.53 8.53 0 0 0 0 315.73v42.66a34.18 34.18 0 0 0 34.14 34.14h443.72A34.18 34.18 0 0 0 512 358.39v-42.66a8.53 8.53 0 0 0-8.53-8.53zm-8.54 51.19a17.09 17.09 0 0 1-17.07 17.08H34.14a17.09 17.09 0 0 1-17.07-17.08v-34.12h477.86v34.12z"/><path class="cls-1" d="M281.6 341.33h-51.2a8.54 8.54 0 0 0 0 17.07h51.2a8.54 8.54 0 0 0 0-17.07zm187.73-307.2H42.67a8.55 8.55 0 0 0-8.54 8.54v273.06a8.55 8.55 0 0 0 8.54 8.54h426.66a8.55 8.55 0 0 0 8.54-8.54V42.67a8.55 8.55 0 0 0-8.54-8.54zM460.8 307.2H51.2v-256h409.6v256zm-93.87 136.53H145.07a25.6 25.6 0 0 0 0 51.2h221.86a25.6 25.6 0 0 0 0-51.2zm0 34.14H145.07a8.54 8.54 0 1 1 0-17.07h221.86a8.54 8.54 0 1 1 0 17.07z"/><path class="cls-1" d="M349.87 443.73c-28.32 0-42.67-20.09-42.67-59.73a8.53 8.53 0 0 0-8.53-8.53h-85.34a8.53 8.53 0 0 0-8.53 8.53c0 39.64-14.35 59.73-42.67 59.73a8.54 8.54 0 0 0 0 17.07h187.74a8.54 8.54 0 0 0 0-17.07zm-146.17 0c10.5-11.64 16.69-29 17.94-51.2h68.73c1.24 22.23 7.43 39.56 17.94 51.2zm204.06-192.3l-20.6-20.6 11.46-11.46a8.53 8.53 0 0 0-3.62-14.21l-85.33-25.6a8.54 8.54 0 0 0-10.63 10.62l25.6 85.34a8.54 8.54 0 0 0 14.21 3.58L351 267l20.6 20.6a8.52 8.52 0 0 0 12.06 0l24.14-24.14a8.53 8.53 0 0 0-.04-12.03zm-30.17 18.1l-18.76-18.76a11.15 11.15 0 0 0-15.75 0l-6.16 6.16L320 200.46l56.47 16.94-6.61 6.6a9.68 9.68 0 0 0 0 13.66l19.8 19.8zM358.4 68.27H119.47a8.54 8.54 0 0 0-8.54 8.53v42.67a8.54 8.54 0 0 0 8.54 8.53H358.4a8.53 8.53 0 0 0 8.53-8.53V76.8a8.53 8.53 0 0 0-8.53-8.53zm-8.53 42.66H128v-25.6h221.87zm-128 51.2H153.6a8.54 8.54 0 0 0-8.53 8.54v34.13a8.53 8.53 0 0 0 8.53 8.53h68.27a8.53 8.53 0 0 0 8.53-8.53v-34.13a8.54 8.54 0 0 0-8.53-8.54zm-8.54 34.14h-51.2V179.2h51.2z"/><path class="cls-1" d="M358.4 68.27H119.47a8.54 8.54 0 0 0-8.54 8.53v162.13a8.55 8.55 0 0 0 8.54 8.54h203.14a8.54 8.54 0 0 0 8.18-11l-10.81-36 36 10.79a8.54 8.54 0 0 0 11-8.17V76.8a8.53 8.53 0 0 0-8.58-8.53zm-8.53 123.34l-40.17-12.05a8.53 8.53 0 0 0-10.62 10.63l12.06 40.21H128V85.33h221.87z"/></svg>