<svg xmlns="http://www.w3.org/2000/svg" viewBox="0 0 208.29 35.89"><defs><style>.cls-1{fill:#ec691f;}.cls-2{fill:#5b5b5b;}</style></defs><title>Ресурс 1</title><g id="Слой_2" data-name="Слой 2"><g id="Слой_1-2" data-name="Слой 1"><g id="Слой_1-3" data-name="Слой_1"><g id="_1903737503664" data-name=" 1903737503664"><path class="cls-1" d="M5.69.11H17.45q3.84,0,5.76,1.83a5.73,5.73,0,0,1,1.28,1.85V.11H36.28a16.81,16.81,0,0,1,5,.57,5.33,5.33,0,0,1,2.8,2.08,6.35,6.35,0,0,1,1.06,3.72,6.39,6.39,0,0,1-.81,3.29A6.43,6.43,0,0,1,42.09,12a8.66,8.66,0,0,1-2.48.9,6.91,6.91,0,0,1,1.83.84A7,7,0,0,1,42.57,15a9,9,0,0,1,1,1.42L47,23H39l-3.77-7A5.44,5.44,0,0,0,34,14.26a3,3,0,0,0-1.74-.53h-.62V23h-7.1V10.5A6,6,0,0,1,23,12.57q-2.09,2-6.37,2H12.78v9.59H5.69V.12Zm39.41,12q0-5.61,3.13-8.72T56.93.23c3.8,0,6.74,1,8.8,3.07s3.09,4.91,3.09,8.59a14,14,0,0,1-1.35,6.57,9.64,9.64,0,0,1-3.9,4,13,13,0,0,1-6.37,1.43,14.71,14.71,0,0,1-6.41-1.23,9.7,9.7,0,0,1-4.11-3.91,12.91,12.91,0,0,1-1.58-6.67Zm7.07,0q0,3.47,1.29,5a4.9,4.9,0,0,0,7,0q1.25-1.49,1.25-5.32a7.06,7.06,0,0,0-1.31-4.72,4.48,4.48,0,0,0-3.54-1.49,4.32,4.32,0,0,0-3.44,1.51q-1.3,1.51-1.3,5ZM31.59,9.42h3a10.67,10.67,0,0,0,1.87-.32,1.82,1.82,0,0,0,1.15-.72,2.12,2.12,0,0,0,.45-1.33,2.09,2.09,0,0,0-.71-1.7,4.2,4.2,0,0,0-2.64-.6H31.59V9.41Zm-18.81.47h1.75a4.48,4.48,0,0,0,2.89-.71,2.29,2.29,0,0,0,.83-1.82,2.51,2.51,0,0,0-.73-1.83,3.72,3.72,0,0,0-2.71-.75h-2Z"/><path class="cls-1" d="M76.59.21h6.07a4,4,0,0,1,3,1,3.93,3.93,0,0,1,1,2.85,4,4,0,0,1-1.08,3,4.44,4.44,0,0,1-3.28,1.08h-2v4.64H76.59Zm3.66,5.36h.9a2.22,2.22,0,0,0,1.49-.39,1.32,1.32,0,0,0,.43-1,1.41,1.41,0,0,0-.38-1,1.81,1.81,0,0,0-1.4-.41h-1v2.8Zm7.48,7.18V.21h6.08a8.12,8.12,0,0,1,2.58.31,2.8,2.8,0,0,1,1.45,1.14,3.69,3.69,0,0,1,.54,2A3.68,3.68,0,0,1,98,5.5a3.31,3.31,0,0,1-1.15,1.23,4.22,4.22,0,0,1-1.28.49,3.61,3.61,0,0,1,1,.47,4,4,0,0,1,.58.66,5.46,5.46,0,0,1,.51.77l1.77,3.62H95.22l-2-3.82a3.06,3.06,0,0,0-.66-1,1.43,1.43,0,0,0-.9-.29h-.32v5.07H87.73ZM91.39,5.3h1.54a4.7,4.7,0,0,0,1-.17.94.94,0,0,0,.59-.39A1.2,1.2,0,0,0,94.72,4a1.17,1.17,0,0,0-.36-.93A2.06,2.06,0,0,0,93,2.75H91.39V5.3Zm7.54,1.19a6.71,6.71,0,0,1,1.61-4.78A5.88,5.88,0,0,1,105,0a6,6,0,0,1,4.54,1.68,6.53,6.53,0,0,1,1.6,4.7,8.06,8.06,0,0,1-.7,3.61,5.11,5.11,0,0,1-2,2.18,6.25,6.25,0,0,1-3.28.79,7.19,7.19,0,0,1-3.31-.68,5.09,5.09,0,0,1-2.12-2.14,7.44,7.44,0,0,1-.82-3.65Zm3.65,0a4.41,4.41,0,0,0,.66,2.73,2.22,2.22,0,0,0,1.82.83,2.2,2.2,0,0,0,1.82-.81,4.86,4.86,0,0,0,.64-2.92,4,4,0,0,0-.67-2.58A2.26,2.26,0,0,0,105,2.92a2.17,2.17,0,0,0-1.77.83,4.39,4.39,0,0,0-.67,2.75ZM112.32.21h9v2.7H116V5.1h4.58V7.63H116v5.12h-3.66V.21Zm10.15,0h9.76V2.89h-6.1v2h5.66V7.44h-5.66V9.91h6.28v2.84h-9.94ZM132.92,8.6l3.46-.23a3,3,0,0,0,.46,1.36,1.92,1.92,0,0,0,1.61.76,1.7,1.7,0,0,0,1.2-.39,1.17,1.17,0,0,0,.43-.9,1.15,1.15,0,0,0-.4-.87,4.48,4.48,0,0,0-1.86-.73,7.7,7.7,0,0,1-3.42-1.52,3.13,3.13,0,0,1-1-2.42,3.35,3.35,0,0,1,.53-1.82A3.58,3.58,0,0,1,135.48.49a7,7,0,0,1,2.9-.49,5.63,5.63,0,0,1,3.45.9,3.91,3.91,0,0,1,1.41,2.84L139.81,4a2,2,0,0,0-.57-1.24A1.76,1.76,0,0,0,138,2.33a1.41,1.41,0,0,0-1,.29.9.9,0,0,0-.32.69.73.73,0,0,0,.26.54,2.73,2.73,0,0,0,1.22.46,15.07,15.07,0,0,1,3.42,1.11,3.49,3.49,0,0,1,2,3.25,4.14,4.14,0,0,1-.62,2.22,4,4,0,0,1-1.76,1.54,6.7,6.7,0,0,1-2.84.53q-3,0-4.17-1.23a5,5,0,0,1-1.31-3.13ZM144,8.6l3.46-.23a3,3,0,0,0,.46,1.36,1.9,1.9,0,0,0,1.61.76,1.7,1.7,0,0,0,1.2-.39,1.15,1.15,0,0,0,0-1.77,4.48,4.48,0,0,0-1.87-.73,7.71,7.71,0,0,1-3.41-1.52,3.13,3.13,0,0,1-1-2.42A3.42,3.42,0,0,1,145,1.84,3.61,3.61,0,0,1,146.56.49a7,7,0,0,1,2.9-.49,5.63,5.63,0,0,1,3.45.9,3.91,3.91,0,0,1,1.41,2.84L150.89,4a2,2,0,0,0-.57-1.24,1.78,1.78,0,0,0-1.21-.39,1.39,1.39,0,0,0-1,.29.87.87,0,0,0-.32.69.7.7,0,0,0,.26.54,2.67,2.67,0,0,0,1.21.46,14.73,14.73,0,0,1,3.42,1.11,3.66,3.66,0,0,1,1.51,1.39,3.72,3.72,0,0,1,.47,1.86,4.15,4.15,0,0,1-.63,2.22,4,4,0,0,1-1.75,1.54,6.73,6.73,0,0,1-2.84.53q-3,0-4.17-1.23A5,5,0,0,1,144,8.6ZM155.85.21h3.66V12.75h-3.66Zm5,6.28a6.71,6.71,0,0,1,1.61-4.78A5.88,5.88,0,0,1,166.93,0a6,6,0,0,1,4.54,1.68,6.53,6.53,0,0,1,1.6,4.7,8.06,8.06,0,0,1-.7,3.61,5.17,5.17,0,0,1-2,2.18,6.29,6.29,0,0,1-3.29.79,7.15,7.15,0,0,1-3.3-.68,5.09,5.09,0,0,1-2.12-2.14,7.33,7.33,0,0,1-.82-3.65Zm3.65,0a4.41,4.41,0,0,0,.66,2.73,2.22,2.22,0,0,0,1.82.83,2.2,2.2,0,0,0,1.82-.81,4.86,4.86,0,0,0,.64-2.92,4,4,0,0,0-.67-2.58,2.26,2.26,0,0,0-1.83-.82,2.17,2.17,0,0,0-1.77.83,4.39,4.39,0,0,0-.67,2.75ZM174.23.21h3.41l4.43,6.92V.21h3.44V12.75h-3.44l-4.41-6.89v6.89h-3.43V.21Zm20,10.47h-4.14l-.59,2.07h-3.72L190.2.21h4l4.43,12.54H194.8l-.59-2.07ZM193.43,8l-1.28-4.51L190.85,8ZM198.94.21h3.64V9.66h5.71v3.09h-9.35Z"/><path class="cls-2" d="M76.59,15.82h8.3A5.45,5.45,0,0,1,89,17.19a5.31,5.31,0,0,1,1.35,3.9,5.51,5.51,0,0,1-1.47,4.07,6.2,6.2,0,0,1-4.5,1.46H81.59V33h-5V15.82Zm96,0H178L184.08,33h-5.22l-.81-2.83H172.4L171.58,33H156.92V15.82h5V28.75H168l4.55-12.93Zm-91,7.33h1.23a3,3,0,0,0,2-.54,1.76,1.76,0,0,0,.59-1.36,2,2,0,0,0-.51-1.37A2.53,2.53,0,0,0,83,19.32H81.59v3.83Zm8.85,1.25a9.15,9.15,0,0,1,2.21-6.53,8,8,0,0,1,6.13-2.34,8.19,8.19,0,0,1,6.22,2.3,9,9,0,0,1,2.18,6.43,11.16,11.16,0,0,1-1,4.93,7.06,7.06,0,0,1-2.76,3A8.6,8.6,0,0,1,99,33.25a9.75,9.75,0,0,1-4.52-.92,7,7,0,0,1-2.9-2.92,10.2,10.2,0,0,1-1.12-5Zm5,0a6,6,0,0,0,.91,3.72,3.31,3.31,0,0,0,5,0c.59-.74.88-2.07.88-4a5.47,5.47,0,0,0-.92-3.53,3,3,0,0,0-2.5-1.12,3,3,0,0,0-2.42,1.13,6,6,0,0,0-.92,3.76ZM108.78,33V15.82h8.32a11.39,11.39,0,0,1,3.53.42,3.77,3.77,0,0,1,2,1.56,4.89,4.89,0,0,1,.75,2.79,5,5,0,0,1-.57,2.46,4.65,4.65,0,0,1-1.58,1.69,6,6,0,0,1-1.75.67,4.81,4.81,0,0,1,1.29.63,5.14,5.14,0,0,1,.8.91,6.85,6.85,0,0,1,.7,1.06l2.42,5H119l-2.66-5.23a4,4,0,0,0-.9-1.32,2,2,0,0,0-1.23-.4h-.44v7Zm5-10.18h2.11a6.86,6.86,0,0,0,1.32-.24A1.27,1.27,0,0,0,118,22a1.65,1.65,0,0,0,.32-1,1.62,1.62,0,0,0-.5-1.28,2.83,2.83,0,0,0-1.86-.45h-2.2v3.5ZM135.46,26l4.38,1.4a8.76,8.76,0,0,1-1.39,3.26,6.14,6.14,0,0,1-2.35,2,8.45,8.45,0,0,1-3.58.66,9.92,9.92,0,0,1-4.31-.81,7,7,0,0,1-2.88-2.85,10.26,10.26,0,0,1-1.21-5.24,9.22,9.22,0,0,1,2.13-6.53,9.25,9.25,0,0,1,10.84-1,7.7,7.7,0,0,1,2.59,4l-4.4,1a4,4,0,0,0-.48-1.14,3,3,0,0,0-1-.93,2.75,2.75,0,0,0-1.35-.32A2.9,2.9,0,0,0,129.81,21a6.51,6.51,0,0,0-.68,3.37,6.73,6.73,0,0,0,.81,3.9,2.73,2.73,0,0,0,2.3,1.06,2.66,2.66,0,0,0,2.16-.86A5.45,5.45,0,0,0,135.47,26Zm5.64-10.13h13.36v3.66h-8.35v2.73h7.74v3.5h-7.74v3.38h8.59V33H141.1V15.82ZM177,26.43l-1.76-6.16-1.77,6.16Zm7.72-10.61h5V33h-5Zm8.15,0h4.66l6,9.47V15.82h4.72V33h-4.72l-6-9.42V33h-4.69Z"/><path class="cls-2" d="M4.82,17.84l-2.06,1.5L0,26.61v7.84H2.22v1.44h.25L4.14,34h0v-.92h9.55V32c0-.2.07-.34.35-.34H32.19a.41.41,0,0,1,.41.39v1.07H68.26V31.32h2.31v-1H68.26V28.56H59.81v.71h-.35v-.71H57.05v.71H56.7v-.71H54.29v.71h-.35v-.71H51.53v.71h-.34v-.71H48.78v.71h-.35v-.71H46v.71h-.35v-.71H43.26v.71h-.35v-.71H40.5v.71h-.35v-.71H37.74v.71h-.35v-.71H35v.71h-.35v-.71h-2v1.09a.4.4,0,0,1-.43.44H14.09a.37.37,0,0,1-.4-.35V28.56H11.85v.71h-.34v-.71H9.1v.71H8.75v-.71H6.34v.71H6v-.71H4.14V26.11l.68-.46V17.84Zm9,0,2.07,1.5,2.75,7.27v.68H26.4a1.83,1.83,0,0,1,3.52,0h1.87V29.5H14.51V26.11l-.68-.46Zm2.6,16.47v1.43h-.25l-1.66-1.86V32.22H31.79v2.09Zm49.33-4.19a.72.72,0,1,1,0,1.43.72.72,0,1,1,0-1.43Z"/></g></g></g></g></svg>