<?xml version="1.0" encoding="utf-8"?>
<!-- Generator: Adobe Illustrator 23.0.1, SVG Export Plug-In . SVG Version: 6.00 Build 0)  -->
<svg version="1.1" id="Слой_1" xmlns="http://www.w3.org/2000/svg" xmlns:xlink="http://www.w3.org/1999/xlink" x="0px" y="0px"
	 viewBox="0 0 20 20" style="enable-background:new 0 0 20 20;" xml:space="preserve">
<style type="text/css">
	.st0{fill:#FFFFFF;}
</style>
<path class="st0" d="M14.5,1c-1.7,0-3.4,0.8-4.5,2.1C8.9,1.8,7.2,1,5.5,1C2.4,1,0,3.4,0,6.5c0,3.8,3.4,6.9,8.6,11.5l1.4,1.3l1.4-1.3
	c5.2-4.7,8.6-7.8,8.6-11.5C20,3.4,17.6,1,14.5,1z M10.1,16.6L10,16.7l-0.1-0.1C5.1,12.2,2,9.4,2,6.5C2,4.5,3.5,3,5.5,3
	c1.5,0,3,1,3.6,2.4h1.9C11.5,4,13,3,14.5,3c2,0,3.5,1.5,3.5,3.5C18,9.4,14.9,12.2,10.1,16.6z"/>
</svg>
