<?xml version="1.0" encoding="utf-8"?>
<!-- Generator: Adobe Illustrator 23.0.1, SVG Export Plug-In . SVG Version: 6.00 Build 0)  -->
<svg version="1.1" id="Layer_1" xmlns="http://www.w3.org/2000/svg" xmlns:xlink="http://www.w3.org/1999/xlink" x="0px" y="0px"
	 viewBox="0 0 512 512" style="enable-background:new 0 0 512 512;" xml:space="preserve">
<style type="text/css">
	.st0{fill:#333333;}
</style>
<g>
	<g>
		<g>
			<path class="st0" d="M444.9,109.8L338.2,3.1c-2-2-4.7-3.1-7.5-3.1h-224C83.1,0,64,19.1,64,42.7v426.7c0,23.5,19.1,42.7,42.7,42.7
				h298.7c23.5,0,42.7-19.1,42.7-42.7v-352C448,114.5,446.9,111.8,444.9,109.8z M341.3,36.4l70.2,70.2h-48.9
				c-11.8,0-21.3-9.6-21.3-21.3V36.4z M426.7,469.3c0,11.8-9.6,21.3-21.3,21.3H106.7c-11.8,0-21.3-9.6-21.3-21.3V42.7
				c0-11.8,9.6-21.3,21.3-21.3H320v64c0,23.5,19.1,42.7,42.7,42.7h64V469.3z"/>
			<path class="st0" d="M373.3,298.7H138.7c-5.9,0-10.7,4.8-10.7,10.7s4.8,10.7,10.7,10.7h234.7c5.9,0,10.7-4.8,10.7-10.7
				C384,303.4,379.2,298.7,373.3,298.7z"/>
			<path class="st0" d="M373.3,234.7H138.7c-5.9,0-10.7,4.8-10.7,10.7c0,5.9,4.8,10.7,10.7,10.7h234.7c5.9,0,10.7-4.8,10.7-10.7
				C384,239.4,379.2,234.7,373.3,234.7z"/>
			<path class="st0" d="M373.3,362.7H138.7c-5.9,0-10.7,4.8-10.7,10.7s4.8,10.7,10.7,10.7h234.7c5.9,0,10.7-4.8,10.7-10.7
				C384,367.4,379.2,362.7,373.3,362.7z"/>
			<path class="st0" d="M266.7,426.7h-128c-5.9,0-10.7,4.8-10.7,10.7s4.8,10.7,10.7,10.7h128c5.9,0,10.7-4.8,10.7-10.7
				C277.3,431.4,272.6,426.7,266.7,426.7z"/>
			<path class="st0" d="M234.7,181.3c0,5.9,4.8,10.7,10.7,10.7h128c5.9,0,10.7-4.8,10.7-10.7s-4.8-10.7-10.7-10.7h-128
				C239.4,170.7,234.7,175.4,234.7,181.3z"/>
			<path class="st0" d="M160,170.7h-21.3c-5.9,0-10.7,4.8-10.7,10.7c0,5.9,4.8,10.7,10.7,10.7h10.7c0,5.9,4.8,10.7,10.7,10.7
				s10.7-4.8,10.7-10.7v-2c12.4-4.4,21.3-16.1,21.3-30c0-17.6-14.4-32-32-32c-5.9,0-10.7-4.8-10.7-10.7c0-5.9,4.8-10.7,10.7-10.7
				h21.3c5.9,0,10.7-4.8,10.7-10.7s-4.8-10.7-10.7-10.7h-10.7c0-5.9-4.8-10.7-10.7-10.7s-10.7,4.8-10.7,10.7v2
				c-12.4,4.4-21.3,16.1-21.3,30c0,17.6,14.4,32,32,32c5.9,0,10.7,4.8,10.7,10.7S165.9,170.7,160,170.7z"/>
		</g>
	</g>
</g>
</svg>
