<?xml version="1.0" encoding="utf-8"?>
<!-- Generator: Adobe Illustrator 22.1.0, SVG Export Plug-In . SVG Version: 6.00 Build 0)  -->
<svg version="1.1" id="Capa_1" xmlns="http://www.w3.org/2000/svg" xmlns:xlink="http://www.w3.org/1999/xlink" x="0px" y="0px"
	 viewBox="0 0 48.4 48.4" style="enable-background:new 0 0 48.4 48.4;" xml:space="preserve">
<style type="text/css">
	.st0{fill:#999999;}
</style>
<g>
	<g>
		<path class="st0" d="M33.9,9.7c-3.7,0-7.2,1.4-9.7,3.7c-2.6-2.3-6-3.7-9.7-3.7c0,0-0.1,0-0.1,0C6.4,9.8,0,16.2,0,24.2
			c0,8,6.5,14.5,14.5,14.5c3.7,0,7.1-1.4,9.7-3.7c-0.5-0.5-1-1-1.5-1.6h3c-0.5,0.6-0.9,1.1-1.5,1.6h0c0,0,0,0,0,0
			c2.6,2.3,6,3.8,9.7,3.7c8,0,14.5-6.5,14.5-14.5c0,0,0,0,0,0C48.4,16.2,41.9,9.7,33.9,9.7z M22.9,15h2.8c0.4,0.5,0.8,1,1.1,1.6
			h-4.9C22.2,16,22.5,15.5,22.9,15z M21,18h6.6c0.2,0.5,0.4,1,0.6,1.6h-8C20.3,19.4,20.6,18.8,21,18z M5.9,27.9l0.9-5.5l-2,5.5H3.8
			l-0.1-5.5l-0.9,5.5H1.2l1.2-7.4h2.3l0.1,4.5l1.5-4.5h2.4l-1.2,7.4H5.9z M11.2,27.9l0.1-0.6c0,0-0.5,0.7-1.6,0.7
			c-0.6,0-1.5-0.3-1.5-1.7c0-1.7,1.4-2.3,2.7-2.3c0.2,0,0.7,0,0.7,0s0.1-0.1,0.1-0.4c0-0.5-0.4-0.5-1-0.5c-1,0-1.7,0.3-1.7,0.3
			l0.2-1.3c0,0,0.8-0.3,1.9-0.3c0.5,0,2.1,0.1,2.1,1.9l-0.6,4.2H11.2z M16.9,26c0,2.1-2,2-2.3,2c-1.3,0-1.7-0.2-1.7-0.2l0.2-1.4
			c0,0,0.6,0.2,1.4,0.2c0.4,0,1,0,1-0.5c0-0.7-1.9-0.6-1.9-2.3c0-1.6,1.2-2,2.3-2c0.9,0,1.4,0.1,1.4,0.1L17,23.3
			c0,0-0.8-0.1-1.1-0.1c-0.5,0-0.8,0.1-0.8,0.5C15.1,24.5,16.9,24.1,16.9,26z M19.3,26.6c0.1,0,0.3,0,0.4,0l-0.2,1.3
			c-0.2,0-0.6,0.2-1.2,0.2c-0.7,0-1.2-0.4-1.2-1.3c0-0.6,0.9-5.7,0.9-5.7h1.5l-0.2,0.9h0.8L20,23.4h-0.8l-0.4,2.7
			C18.7,26.3,18.8,26.6,19.3,26.6z M22.7,21.8c1.7,0,2.2,1.2,2.2,2.3c0,0.4-0.2,1.4-0.2,1.4h-3.1c0,0-0.3,1.2,1.4,1.2
			c0.8,0,1.6-0.4,1.6-0.4l-0.3,1.5c0,0-0.5,0.3-1.6,0.3c-1.2,0-2.7-0.5-2.7-2.7C20,23.4,21.2,21.8,22.7,21.8z M26.8,31.9h-5.1
			c-0.3-0.5-0.6-1-0.9-1.6h6.8C27.4,30.9,27.1,31.4,26.8,31.9z M26.4,27.9h-1.6l1-6h1.4l-0.1,0.9c0,0,0.5-0.9,1.2-0.9
			c0.2,0,0.3,0,0.3,0c-0.2,0.4-0.4,0.8-0.6,1.8C27,23.3,26.9,25.4,26.4,27.9z M32.5,27.8c0,0-0.8,0.2-1.4,0.2
			c-1.8,0-2.8-1.3-2.8-3.2c0-2.9,1.7-4.4,3.5-4.4c0.8,0,1.7,0.4,1.7,0.4l-0.3,1.6c0,0-0.6-0.4-1.4-0.4c-1,0-2,1-2,2.8
			c0,0.9,0.4,1.7,1.5,1.7c0.5,0,1.3-0.4,1.3-0.4L32.5,27.8z M36.2,27.9l0.1-0.6c0,0-0.5,0.7-1.6,0.7c-0.6,0-1.5-0.3-1.5-1.7
			c0-1.7,1.4-2.3,2.7-2.3c0.2,0,0.7,0,0.7,0s0.1-0.1,0.1-0.4c0-0.5-0.4-0.5-1-0.5c-1,0-1.7,0.3-1.7,0.3l0.2-1.3c0,0,0.8-0.3,1.9-0.3
			c0.5,0,2.1,0.1,2.1,1.9l-0.6,4.2C37.6,27.9,36.2,27.9,36.2,27.9z M39.4,27.9h-1.6l1-6h1.4l-0.1,0.9c0,0,0.5-0.9,1.2-0.9
			c0.2,0,0.3,0,0.3,0c-0.2,0.4-0.4,0.8-0.6,1.8C39.9,23.3,39.9,25.4,39.4,27.9z M44.1,27.9l0.1-0.6c0,0-0.5,0.6-1.4,0.6
			c-1.3,0-1.9-1.2-1.9-2.5c0-2,1.2-3.7,2.6-3.7c0.9,0,1.5,0.8,1.5,0.8l0.3-2.1l1.5,0l-1.2,7.3H44.1z M47.2,27.7
			c0,0.1-0.1,0.1-0.2,0.2c-0.1,0-0.2,0.1-0.2,0.1c-0.1,0-0.2,0-0.2-0.1c-0.1,0-0.1-0.1-0.2-0.2c0-0.1-0.1-0.2-0.1-0.2
			c0-0.1,0-0.2,0.1-0.2s0.1-0.1,0.2-0.2c0.1,0,0.2-0.1,0.2-0.1c0.1,0,0.2,0,0.2,0.1c0.1,0,0.1,0.1,0.2,0.2c0,0.1,0.1,0.2,0.1,0.2
			S47.2,27.6,47.2,27.7z"/>
	</g>
</g>
<g>
	<g>
		<path class="st0" d="M47.1,32.1C47.1,32.1,47,32.1,47.1,32.1c-0.1,0-0.1,0-0.1,0h-0.1v0.2H47C47,32.2,47,32.2,47.1,32.1
			C47.1,32.2,47.1,32.2,47.1,32.1C47.1,32.1,47.1,32.1,47.1,32.1z"/>
	</g>
</g>
<g>
	<g>
		<path class="st0" d="M47.4,32c0-0.1-0.1-0.1-0.2-0.2c-0.1,0-0.2-0.1-0.2-0.1c-0.1,0-0.2,0-0.2,0.1S46.6,32,46.6,32
			c0,0.1-0.1,0.2-0.1,0.2s0,0.2,0.1,0.2c0,0.1,0.1,0.1,0.2,0.2c0.1,0,0.2,0.1,0.2,0.1c0.1,0,0.2,0,0.2-0.1c0.1,0,0.1-0.1,0.2-0.2
			c0-0.1,0.1-0.2,0.1-0.2S47.4,32.1,47.4,32z M47.1,32.5L47.1,32.5L47.1,32.5C47,32.4,47,32.3,47,32.3c0,0,0,0-0.1,0h0v0.2h-0.1V32
			h0.2c0.1,0,0.1,0,0.1,0c0,0,0,0,0.1,0c0,0,0,0,0,0.1c0,0,0,0.1,0,0.1c0,0-0.1,0-0.1,0c0,0,0,0,0,0C47.1,32.3,47.1,32.4,47.1,32.5
			h0.1H47.1z"/>
	</g>
</g>
<g>
	<g>
		<path class="st0" d="M11,25.2c-1.1,0-1.4,0.5-1.4,0.9c0,0.2,0.1,0.6,0.6,0.6c0.9,0,1.1-1.2,1.1-1.5C11.3,25.2,11.3,25.2,11,25.2z"
			/>
	</g>
</g>
<g>
	<g>
		<path class="st0" d="M22.7,23.1c-0.8,0-1,1-1,1.1h1.7C23.4,24.1,23.6,23.1,22.7,23.1z"/>
	</g>
</g>
<g>
	<g>
		<path class="st0" d="M43.7,23.3c-0.7,0-1.2,0.8-1.2,2c0,0.7,0.3,1.2,0.8,1.2c0.8,0,1.2-1.1,1.2-1.9C44.5,23.7,44.3,23.3,43.7,23.3
			z"/>
	</g>
</g>
<g>
	<g>
		<path class="st0" d="M47.1,27.3c0-0.1-0.1-0.1-0.1-0.1s-0.1-0.1-0.2-0.1c-0.1,0-0.1,0-0.2,0.1c-0.1,0-0.1,0.1-0.1,0.1
			s-0.1,0.1-0.1,0.2c0,0.1,0,0.1,0.1,0.2c0,0.1,0.1,0.1,0.1,0.1c0.1,0,0.1,0.1,0.2,0.1s0.1,0,0.2-0.1c0.1,0,0.1-0.1,0.1-0.1
			c0-0.1,0.1-0.1,0.1-0.2C47.2,27.4,47.2,27.3,47.1,27.3z M46.9,27.7L46.9,27.7c-0.1-0.1-0.1-0.2-0.1-0.2c0,0,0,0-0.1,0h0v0.2h-0.1
			v-0.5h0.2c0.1,0,0.1,0,0.1,0c0,0,0,0,0.1,0c0,0,0,0,0,0.1c0,0,0,0.1,0,0.1c0,0-0.1,0-0.1,0c0,0,0,0,0,0
			C46.9,27.5,46.9,27.6,46.9,27.7L46.9,27.7C47,27.7,46.9,27.7,46.9,27.7z"/>
	</g>
</g>
<g>
	<g>
		<path class="st0" d="M36,25.2c-1.1,0-1.4,0.5-1.4,0.9c0,0.2,0.1,0.6,0.6,0.6c0.9,0,1.1-1.2,1.1-1.5C36.3,25.2,36.3,25.2,36,25.2z"
			/>
	</g>
</g>
<g>
	<g>
		<path class="st0" d="M46.9,27.3C46.9,27.3,46.8,27.3,46.9,27.3c-0.1,0-0.1,0-0.1,0v0h-0.1v0.2h0.1C46.8,27.4,46.8,27.4,46.9,27.3
			C46.9,27.4,46.9,27.4,46.9,27.3C46.9,27.3,46.9,27.3,46.9,27.3z"/>
	</g>
</g>
</svg>
