<svg xmlns="http://www.w3.org/2000/svg" viewBox="0 0 80 79"><defs><style>.cls-1{fill:#f9690e;}</style></defs><path class="cls-1" d="M28.2,79.3c-9.9,0-19.8-2.8-19.8-8.1V66.1L8.2,66C2.9,64.7,0,62.3,0,59.5V52.8c0-1.3.6-3.1,3.6-4.8l.2-.1-.1-.2a4.15,4.15,0,0,1-.3-1.6V39.4c0-2.5,2.3-4.7,6.5-6.1l.2-.1v-14a1.37,1.37,0,0,1,1.4-1.4h5.3V14.1a1.37,1.37,0,0,1,1.4-1.4H78.6A1.37,1.37,0,0,1,80,14.1V47.7a1.37,1.37,0,0,1-1.4,1.4H73.3v5.3a1.37,1.37,0,0,1-1.4,1.4H39.7v2l.2.1c5.3,1.5,8.2,3.8,8.2,6.6v6.7C48.1,76.6,38.1,79.3,28.2,79.3ZM11.1,71.2c0,2.2,6.7,5.3,17.1,5.3s17.1-3.2,17.1-5.3V68.8l-.5.3c-3.6,2.2-9.8,3.5-16.6,3.5s-13.1-1.3-16.6-3.5l-.5-.3ZM15.7,68h0a37.49,37.49,0,0,0,11.9,1.9h.7c10.4,0,17.1-3.2,17.1-5.3,0-1-1.7-2.6-5.6-3.8l-.3-.1-.1.3c-1.7,4.6-11.3,6.7-19.6,6.7-1.3,0-2.7-.1-3.9-.2h-.1ZM2.8,59.5c0,2.2,6.7,5.3,17.1,5.3S37,61.6,37,59.5V57.1l-.5.3c-3.6,2.2-9.8,3.5-16.6,3.5S6.8,59.6,3.2,57.4l-.5-.3v2.4Zm2.7-9.4C3.8,51,2.8,52,2.8,52.8c0,2.2,6.7,5.3,17.1,5.3S37,54.9,37,52.8v-.3l-.1-.4-.3.1a42.14,42.14,0,0,1-12.7,2h-.7c-7.4,0-14.1-1.5-17.4-4l-.2-.1Zm36.1-.9a8.34,8.34,0,0,1-2.1,1.6l-.2.1.1.3a4.15,4.15,0,0,1,.3,1.6v.3H70.5v-4l-28.9.1ZM6.1,46.1c0,2.2,6.7,5.3,17.1,5.3s17.1-3.2,17.1-5.3V43.7l-.5.3c-3.6,2.2-9.8,3.5-16.6,3.5S10.1,46.2,6.6,44l-.5-.3Zm36.9.3H77.2V15.5H19.5V31.4h.3c1.1-.1,2.2-.1,3.3-.1h.4a44.06,44.06,0,0,1,11.4,1.5l.4.1-.1-.4a7.57,7.57,0,0,1-.1-1.5,12.41,12.41,0,0,1,1-5,13,13,0,0,1,12.2-8.2,11.94,11.94,0,0,1,4.9,1,13,13,0,0,1,7.2,7,12.85,12.85,0,0,1,.1,10A13,13,0,0,1,48.3,44a11.94,11.94,0,0,1-4.9-1l-.4-.1ZM23.2,34C12.8,34,6.1,37.2,6.1,39.3s6.7,5.3,17.1,5.3,17.1-3.2,17.1-5.3S33.6,34,23.2,34ZM48.4,20.6a10.32,10.32,0,0,0-3,.4,10.64,10.64,0,0,0-6.2,5,10.31,10.31,0,0,0-.8,7.9h0l.1.1c3,1.4,4.5,3.3,4.5,5.3v.5l.2.1a10.67,10.67,0,0,0,5.2,1.4,10.32,10.32,0,0,0,3-.4,10.64,10.64,0,0,0,6.2-5,10.31,10.31,0,0,0,.8-7.9A10.6,10.6,0,0,0,48.4,20.6ZM12.8,32.4l.4-.1,3.3-.6h.3V20.6h-4Z"/><path class="cls-1" d="M57.5,72.2a1.39,1.39,0,0,1,0-1.9L64,63.8l1.9,1.9-4.1,4.1H71.9a5.34,5.34,0,0,0,5.3-5.3V59.8H80v4.7a8.07,8.07,0,0,1-8.1,8.1H61.8l4.1,4.2L64,78.7Z"/><path class="cls-1" d="M0,23.9V14.1A8.07,8.07,0,0,1,8.1,6h5.1L9,1.9,11,0l6.5,6.5a1.39,1.39,0,0,1,0,1.9L11,14.9l-2-2,4.2-4.1H8.1a5.34,5.34,0,0,0-5.3,5.3v9.8Z"/><rect class="cls-1" y="27.9" width="2.8" height="2.8"/><rect class="cls-1" x="77.2" y="53.1" width="2.8" height="2.8"/><path class="cls-1" d="M21.8,23.9V19.2a1.37,1.37,0,0,1,1.4-1.4h4.7v2.8H24.5V24H21.8Z"/><path class="cls-1" d="M72.2,23.9V20.5H68.8V17.8h4.7a1.37,1.37,0,0,1,1.4,1.4v4.7Z"/><path class="cls-1" d="M68.8,44.1V41.3h3.4V37.9H75v4.7A1.37,1.37,0,0,1,73.6,44H68.8Z"/></svg>