<?xml version="1.0" encoding="utf-8"?>
<!-- Generator: Adobe Illustrator 22.1.0, SVG Export Plug-In . SVG Version: 6.00 Build 0)  -->
<svg version="1.1" id="Capa_1" xmlns="http://www.w3.org/2000/svg" xmlns:xlink="http://www.w3.org/1999/xlink" x="0px" y="0px"
	 viewBox="0 0 42.1 42.1" style="enable-background:new 0 0 42.1 42.1;" xml:space="preserve">
<style type="text/css">
	.st0{fill:#999999;}
</style>
<g>
	<path class="st0" d="M38.3,29.4L36.9,28c4.3-4.3,4.3-11.4,0-15.7l1.3-1.3C43.3,16,43.3,24.3,38.3,29.4z M36,13.3l-1.3,1.3
		c3.1,3.1,3.1,8.1,0,11.1l1.3,1.3C39.8,23.3,39.8,17.1,36,13.3z M33.6,15.6L32.3,17c1.8,1.8,1.8,4.6,0,6.4l1.3,1.3
		C36.1,22.2,36.1,18.1,33.6,15.6z M3.8,29.4L5.1,28c-4.3-4.3-4.3-11.4,0-15.7L3.8,11C-1.3,16-1.3,24.3,3.8,29.4z M6.1,27.1l1.3-1.3
		c-3.1-3.1-3.1-8.1,0-11.1l-1.3-1.3C2.3,17.1,2.3,23.3,6.1,27.1z M8.5,24.7l1.3-1.3C8,21.6,8,18.7,9.8,17l-1.3-1.3
		C6,18.1,6,22.2,8.5,24.7z M29.7,8.1V34c0,1.1-0.9,2-2,2H14.3c-1.1,0-2-0.9-2-2V8.1c0-1.1,0.9-2,2-2h13.4C28.8,6,29.7,6.9,29.7,8.1z
		 M18.6,7.7c0,0.1,0.1,0.2,0.2,0.2h4.3c0.1,0,0.2-0.1,0.2-0.2c0-0.1-0.1-0.2-0.2-0.2h-4.3C18.8,7.5,18.6,7.6,18.6,7.7z M22,34
		c0-0.6-0.5-1-1-1s-1,0.5-1,1c0,0.6,0.5,1,1,1C21.6,35,22,34.6,22,34z M28.3,9.2H13.7v23h14.6V9.2z"/>
</g>
</svg>
