<?xml version="1.0" encoding="utf-8"?>
<!-- Generator: Adobe Illustrator 23.0.1, SVG Export Plug-In . SVG Version: 6.00 Build 0)  -->
<svg version="1.1" id="Layer_1" xmlns="http://www.w3.org/2000/svg" xmlns:xlink="http://www.w3.org/1999/xlink" x="0px" y="0px"
	 viewBox="0 0 512 512" style="enable-background:new 0 0 512 512;" xml:space="preserve">
<style type="text/css">
	.st0{fill:#FFFFFF;}
</style>
<g>
	<g>
		<g>
			<path class="st0" d="M341.3,320V170.7h-160V21.3H0v149.3V192v128v21.3v149.3h160h21.3H320h21.3H512V320H341.3z M21.3,42.7H160
				v128H21.3V42.7z M21.3,192H160v128H21.3V192z M21.3,469.3v-128H160v128H21.3z M320,469.3H181.3v-128H320V469.3z M320,320H181.3
				V192H320V320z M490.7,469.3L490.7,469.3H341.3v-128h149.3V469.3z"/>
			<path class="st0" d="M138.7,53.3h-96C36.8,53.3,32,58.1,32,64v85.3c0,5.9,4.8,10.7,10.7,10.7s10.7-4.8,10.7-10.7V74.7h85.3
				c5.9,0,10.7-4.8,10.7-10.7S144.6,53.3,138.7,53.3z"/>
			<path class="st0" d="M138.7,202.7h-96c-5.9,0-10.7,4.8-10.7,10.7v85.3c0,5.9,4.8,10.7,10.7,10.7s10.7-4.8,10.7-10.7V224h85.3
				c5.9,0,10.7-4.8,10.7-10.7C149.3,207.4,144.6,202.7,138.7,202.7z"/>
			<path class="st0" d="M138.7,352h-96c-5.9,0-10.7,4.8-10.7,10.7V448c0,5.9,4.8,10.7,10.7,10.7s10.7-4.8,10.7-10.7v-74.7h85.3
				c5.9,0,10.7-4.8,10.7-10.7C149.3,356.8,144.6,352,138.7,352z"/>
			<path class="st0" d="M202.7,309.3c5.9,0,10.7-4.8,10.7-10.7V224h85.3c5.9,0,10.7-4.8,10.7-10.7s-4.8-10.7-10.7-10.7h-96
				c-5.9,0-10.7,4.8-10.7,10.7v85.3C192,304.6,196.8,309.3,202.7,309.3z"/>
			<path class="st0" d="M202.7,458.7c5.9,0,10.7-4.8,10.7-10.7v-74.7h85.3c5.9,0,10.7-4.8,10.7-10.7c0-5.9-4.8-10.7-10.7-10.7h-96
				c-5.9,0-10.7,4.8-10.7,10.7V448C192,453.9,196.8,458.7,202.7,458.7z"/>
			<path class="st0" d="M362.7,458.7c5.9,0,10.7-4.8,10.7-10.7v-74.7h96c5.9,0,10.7-4.8,10.7-10.7c0-5.9-4.8-10.7-10.7-10.7H362.7
				c-5.9,0-10.7,4.8-10.7,10.7V448C352,453.9,356.8,458.7,362.7,458.7z"/>
		</g>
	</g>
</g>
</svg>
