<?xml version="1.0" encoding="utf-8"?>
<!-- Generator: Adobe Illustrator 22.1.0, SVG Export Plug-In . SVG Version: 6.00 Build 0)  -->
<svg version="1.1" id="Capa_1" xmlns="http://www.w3.org/2000/svg" xmlns:xlink="http://www.w3.org/1999/xlink" x="0px" y="0px"
	 viewBox="0 0 31 31" style="enable-background:new 0 0 31 31;" xml:space="preserve">
<style type="text/css">
	.st0{fill:#999999;}
</style>
<path class="st0" d="M29.3,30.9c-0.3,0-0.6-0.1-0.8-0.3l-8-8.4L20,22.5c-2.1,1.5-4.5,2.2-7.1,2.2c-6.8,0-12.3-5.5-12.3-12.3
	S6.2,0.1,13,0.1s12.3,5.5,12.3,12.3c0,2.9-1,5.7-2.9,7.9l-0.3,0.4l8,8.3c0.2,0.2,0.3,0.5,0.3,0.8s-0.1,0.6-0.3,0.8
	C29.8,30.8,29.5,30.9,29.3,30.9z M13,2.3C7.4,2.3,2.8,6.8,2.8,12.4S7.4,22.6,13,22.6S23.2,18,23.2,12.4C23.1,6.8,18.6,2.3,13,2.3z"
	/>
</svg>
