<?xml version="1.0" encoding="utf-8"?>
<!-- Generator: Adobe Illustrator 22.1.0, SVG Export Plug-In . SVG Version: 6.00 Build 0)  -->
<svg version="1.1" id="Слой_1" xmlns="http://www.w3.org/2000/svg" xmlns:xlink="http://www.w3.org/1999/xlink" x="0px" y="0px"
	 viewBox="0 0 17.5 17.5" style="enable-background:new 0 0 17.5 17.5;" xml:space="preserve">
<style type="text/css">
	.st0{fill:#999999;}
	.st1{fill:none;}
</style>
<path class="st0" d="M0,16l1.5,1.5l5-5v-0.8l0.3-0.3c1.1,1,2.6,1.6,4.2,1.6c3.6,0,6.5-2.9,6.5-6.5S14.6,0,11,0S4.6,3,4.6,6.6
	c0,1.5,0.6,3,1.6,4.2l-0.3,0.3H5L0,16z M6.6,6.6c0-2.5,2-4.5,4.5-4.5s4.5,2,4.5,4.5s-2,4.5-4.5,4.5S6.6,9,6.6,6.6z"/>
<path class="st1" d="M-3-3h24v24H-3C-3,21-3-3-3-3z"/>
</svg>
