<?xml version="1.0" encoding="utf-8"?>
<!-- Generator: Adobe Illustrator 22.1.0, SVG Export Plug-In . SVG Version: 6.00 Build 0)  -->
<svg version="1.1" id="Capa_1" xmlns="http://www.w3.org/2000/svg" xmlns:xlink="http://www.w3.org/1999/xlink" x="0px" y="0px"
	 viewBox="0 0 512 512" style="enable-background:new 0 0 512 512;" xml:space="preserve">
<style type="text/css">
	.st0{fill:#F9660E;}
</style>
<g>
	<g>
		<path class="st0" d="M473.1,181.5h-18.2L373.3,27.7c-3.9-7.3-13-10.1-20.3-6.2c-7.3,3.9-10.1,13-6.2,20.3l74.1,139.8H93.2
			l74.1-139.8c3.9-7.3,1.1-16.4-6.2-20.3c-7.3-3.9-16.4-1.1-20.3,6.2L59.3,181.5H38.9C17.4,181.5,0,199,0,220.4s17.4,38.9,38.9,38.9
			H40c0,0.2,0.1,0.4,0.1,0.6l31.3,175.4c5.9,33,34.5,56.9,68,56.9h235.5c33.5,0,62.1-23.9,68-56.9l31.3-175.4c0-0.2,0.1-0.4,0.1-0.7
			c20.9-0.6,37.8-17.8,37.8-38.9C512,199,494.6,181.5,473.1,181.5z M413.3,430.1c-3.3,18.7-19.5,32.2-38.4,32.2H139.3
			c-18.9,0-35.1-13.5-38.4-32.2L70.4,259.3h373.3L413.3,430.1z M473.1,229.3H38.9c-4.9,0-8.9-4-8.9-8.9c0-4.9,4-8.9,8.9-8.9h434.2
			c4.9,0,8.9,4,8.9,8.9C482,225.3,478,229.3,473.1,229.3z"/>
	</g>
</g>
<g>
	<g>
		<path class="st0" d="M255.4,280.1c-8.3,0-15,6.7-15,15v131.4c0,8.3,6.7,15,15,15c8.3,0,15-6.7,15-15V295.1
			C270.4,286.8,263.6,280.1,255.4,280.1z"/>
	</g>
</g>
<g>
	<g>
		<path class="st0" d="M204.2,424L182,292.6c-1.4-8.2-9.1-13.7-17.3-12.3c-8.2,1.4-13.7,9.1-12.3,17.3L174.6,429
			c1.2,7.3,7.6,12.5,14.8,12.5c0.8,0,1.7-0.1,2.5-0.2C200,439.9,205.5,432.1,204.2,424z"/>
	</g>
</g>
<g>
	<g>
		<path class="st0" d="M344.9,280.3c-8.2-1.4-15.9,4.1-17.3,12.3L305.5,424c-1.4,8.2,4.1,15.9,12.3,17.3c0.8,0.1,1.7,0.2,2.5,0.2
			c7.2,0,13.5-5.2,14.8-12.5l22.1-131.4C358.6,289.4,353.1,281.7,344.9,280.3z"/>
	</g>
</g>
</svg>
