<svg xmlns="http://www.w3.org/2000/svg" viewBox="0 0 512 495"><defs><style>.cls-1{fill:#f9690e;}</style></defs><path class="cls-1" d="M477.86,0H34.14A34.18,34.18,0,0,0,0,34.14V315.73a8.54,8.54,0,0,0,8.53,8.54H503.47a8.54,8.54,0,0,0,8.53-8.54V34.14A34.18,34.18,0,0,0,477.86,0Zm17.07,307.2H17.07V34.14A17.09,17.09,0,0,1,34.14,17.07H477.86a17.09,17.09,0,0,1,17.07,17.07Z"/><path class="cls-1" d="M503.47,307.2H8.53A8.53,8.53,0,0,0,0,315.73v42.66a34.18,34.18,0,0,0,34.14,34.14H477.86A34.18,34.18,0,0,0,512,358.39V315.73A8.53,8.53,0,0,0,503.47,307.2Zm-8.54,51.19a17.09,17.09,0,0,1-17.07,17.08H34.14a17.09,17.09,0,0,1-17.07-17.08V324.27H494.93v34.12Z"/><path class="cls-1" d="M281.6,341.33H230.4a8.54,8.54,0,0,0,0,17.07h51.2a8.54,8.54,0,0,0,0-17.07Z"/><path class="cls-1" d="M469.33,34.13H42.67a8.55,8.55,0,0,0-8.54,8.54V315.73a8.55,8.55,0,0,0,8.54,8.54H469.33a8.55,8.55,0,0,0,8.54-8.54V42.67A8.55,8.55,0,0,0,469.33,34.13ZM460.8,307.2H51.2V51.2H460.8v256Z"/><path class="cls-1" d="M366.93,443.73H145.07a25.6,25.6,0,0,0,0,51.2H366.93a25.6,25.6,0,0,0,0-51.2Zm0,34.14H145.07a8.54,8.54,0,1,1,0-17.07H366.93a8.54,8.54,0,1,1,0,17.07Z"/><path class="cls-1" d="M349.87,443.73c-28.32,0-42.67-20.09-42.67-59.73a8.53,8.53,0,0,0-8.53-8.53H213.33A8.53,8.53,0,0,0,204.8,384c0,39.64-14.35,59.73-42.67,59.73a8.54,8.54,0,0,0,0,17.07H349.87a8.54,8.54,0,0,0,0-17.07Zm-146.17,0c10.5-11.64,16.69-29,17.94-51.2h68.73c1.24,22.23,7.43,39.56,17.94,51.2Z"/><path class="cls-1" d="M407.76,251.43l-20.6-20.6,11.46-11.46A8.53,8.53,0,0,0,395,205.16l-85.33-25.6a8.54,8.54,0,0,0-10.63,10.62l25.6,85.34a8.54,8.54,0,0,0,14.21,3.58L351,267l20.6,20.6a8.52,8.52,0,0,0,12.06,0l24.14-24.14A8.53,8.53,0,0,0,407.76,251.43Zm-30.17,18.1-18.76-18.76a11.15,11.15,0,0,0-15.75,0l-6.16,6.16L320,200.46l56.47,16.94-6.61,6.6a9.68,9.68,0,0,0,0,13.66l19.8,19.8Z"/><path class="cls-1" d="M358.4,68.27H119.47a8.54,8.54,0,0,0-8.54,8.53v42.67a8.54,8.54,0,0,0,8.54,8.53H358.4a8.53,8.53,0,0,0,8.53-8.53V76.8A8.53,8.53,0,0,0,358.4,68.27Zm-8.53,42.66H128V85.33H349.87Z"/><path class="cls-1" d="M221.87,162.13H153.6a8.54,8.54,0,0,0-8.53,8.54V204.8a8.53,8.53,0,0,0,8.53,8.53h68.27a8.53,8.53,0,0,0,8.53-8.53V170.67A8.54,8.54,0,0,0,221.87,162.13Zm-8.54,34.14h-51.2V179.2h51.2Z"/><path class="cls-1" d="M358.4,68.27H119.47a8.54,8.54,0,0,0-8.54,8.53V238.93a8.55,8.55,0,0,0,8.54,8.54H322.61a8.54,8.54,0,0,0,8.18-11l-10.81-36,36,10.79a8.54,8.54,0,0,0,11-8.17V76.8A8.53,8.53,0,0,0,358.4,68.27Zm-8.53,123.34L309.7,179.56a8.53,8.53,0,0,0-10.62,10.63l12.06,40.21H128V85.33H349.87Z"/></svg>